<svg xmlns="http://www.w3.org/2000/svg" width="55.31" height="51.671" viewBox="0 0 55.31 51.671">
  <g id="Group_115" data-name="Group 115" transform="translate(0.653 0.657)">
    <path id="Path_122" data-name="Path 122" d="M153.288,135.517l-15.353,22.1a1.8,1.8,0,0,0,1.476,2.824H149.3l-3.676,13.748a1.338,1.338,0,0,0,2.384,1.12l15.038-21.172a1.8,1.8,0,0,0-1.465-2.838h-9.835l3.937-14.67A1.339,1.339,0,0,0,153.288,135.517Z" transform="translate(-123.495 -125.56)" fill="none" stroke="#045471" stroke-linecap="round" stroke-miterlimit="10" stroke-width="1.3"/>
    <g id="Group_114" data-name="Group 114">
      <path id="Path_123" data-name="Path 123" d="M140.224,178.142a27,27,0,1,1,29.216-.343" transform="translate(-127.568 -128.265)" fill="none" stroke="#045471" stroke-linecap="round" stroke-miterlimit="10" stroke-width="1.3"/>
      <path id="Path_124" data-name="Path 124" d="M162.553,165.592l-4.669-.028a.984.984,0,0,1-.94-1.255l1.189-4.165" transform="translate(-115.671 -115.336)" fill="none" stroke="#045471" stroke-linecap="round" stroke-miterlimit="10" stroke-width="1.3"/>
    </g>
  </g>
</svg>
