<svg xmlns="http://www.w3.org/2000/svg" width="55.956" height="51.272" viewBox="0 0 55.956 51.272">
  <g id="Group_73" data-name="Group 73" transform="translate(0.65 0.743)">
    <path id="Path_71" data-name="Path 71" d="M54.293,233.679h9.714l26.507,6.173a2.831,2.831,0,0,0,2.435-.565l15.075-12.32a2.109,2.109,0,0,0,.329-2.93h0a2.109,2.109,0,0,0-2.846-.448L92.94,232.108a2.828,2.828,0,0,1-3.115.041L81.779,227" transform="translate(-54.293 -190.058)" fill="none" stroke="#399dae" stroke-linecap="round" stroke-miterlimit="10" stroke-width="1.3"/>
    <path id="Path_72" data-name="Path 72" d="M78.893,228.372H97.453c3.022,0,3.4-3.449.011-4.24-5.279-1.232-7.5-1.442-20.173-4.465-7.13-1.7-13.438,3.739-13.438,3.739h-9.56" transform="translate(-54.293 -191.43)" fill="none" stroke="#399dae" stroke-linecap="round" stroke-miterlimit="10" stroke-width="1.3"/>
    <g id="Group_72" data-name="Group 72" transform="translate(22.06 0)">
      <g id="Group_71" data-name="Group 71">
        <g id="Group_69" data-name="Group 69">
          <path id="Path_73" data-name="Path 73" d="M70.877,198.7s-2.9,13.256,10.15,15.742C81.026,214.447,85.79,201.19,70.877,198.7Z" transform="translate(-70.602 -198.705)" fill="none" stroke="#399dae" stroke-miterlimit="10" stroke-width="1.3"/>
          <path id="Path_74" data-name="Path 74" d="M72.957,201.9A42.772,42.772,0,0,1,80.2,213.318a26.772,26.772,0,0,1,1.642,9.322" transform="translate(-69.772 -197.577)" fill="none" stroke="#399dae" stroke-linecap="round" stroke-miterlimit="10" stroke-width="1.3"/>
        </g>
        <g id="Group_70" data-name="Group 70" transform="translate(12.066 11.824)">
          <path id="Path_75" data-name="Path 75" d="M93.874,208.228s-2.771,9.44-11.935,6.478C81.939,214.705,83.524,204.616,93.874,208.228Z" transform="translate(-78.671 -207.447)" fill="none" stroke="#399dae" stroke-miterlimit="10" stroke-width="1.3"/>
          <path id="Path_76" data-name="Path 76" d="M91.368,209.31a61.037,61.037,0,0,0-11.845,7.108" transform="translate(-79.523 -206.79)" fill="none" stroke="#399dae" stroke-linecap="round" stroke-miterlimit="10" stroke-width="1.3"/>
        </g>
      </g>
      <path id="Path_77" data-name="Path 77" d="M73.242,220.713a11.165,11.165,0,0,1,18.767,4.4" transform="translate(-69.671 -192.171)" fill="none" stroke="#399dae" stroke-linecap="round" stroke-miterlimit="10" stroke-width="1.3"/>
    </g>
  </g>
</svg>
