<svg xmlns="http://www.w3.org/2000/svg" width="59.07" height="49.267" viewBox="0 0 59.07 49.267">
  <g id="Group_79" data-name="Group 79" transform="translate(0.65 0.65)">
    <rect id="Rectangle_80" data-name="Rectangle 80" width="8.517" height="9.039" transform="translate(24.626 38.928)" fill="none" stroke="#55c4cf" stroke-linecap="round" stroke-miterlimit="10" stroke-width="1.3"/>
    <g id="Group_78" data-name="Group 78" transform="translate(0 0)">
      <g id="Group_76" data-name="Group 76" transform="translate(7.602 4.858)">
        <g id="Group_74" data-name="Group 74" transform="translate(0 5.842)">
          <g id="Rectangle_81" data-name="Rectangle 81" transform="translate(0 7.459)" fill="none" stroke="#55c4cf" stroke-linecap="round" stroke-linejoin="round" stroke-width="1.3">
            <path d="M.535,0H2.7a.535.535,0,0,1,.535.535V7.459a0,0,0,0,1,0,0H0a0,0,0,0,1,0,0V.535A.535.535,0,0,1,.535,0Z" stroke="none"/>
            <path d="M.765.65h1.7a.115.115,0,0,1,.115.115V6.159a.65.65,0,0,1-.65.65H1.3a.65.65,0,0,1-.65-.65V.765A.115.115,0,0,1,.765.65Z" fill="none"/>
          </g>
          <g id="Rectangle_82" data-name="Rectangle 82" transform="translate(5.132 3.362)" fill="none" stroke="#55c4cf" stroke-linecap="round" stroke-linejoin="round" stroke-width="1.3">
            <path d="M.535,0H2.7a.535.535,0,0,1,.535.535V11.557a0,0,0,0,1,0,0H0a0,0,0,0,1,0,0V.535A.535.535,0,0,1,.535,0Z" stroke="none"/>
            <path d="M.765.65h1.7a.115.115,0,0,1,.115.115v9.492a.65.65,0,0,1-.65.65H1.3a.65.65,0,0,1-.65-.65V.765A.115.115,0,0,1,.765.65Z" fill="none"/>
          </g>
          <g id="Rectangle_83" data-name="Rectangle 83" transform="translate(10.264 4.908)" fill="none" stroke="#55c4cf" stroke-linecap="round" stroke-linejoin="round" stroke-width="1.3">
            <path d="M.535,0H2.7a.535.535,0,0,1,.535.535v9.475a0,0,0,0,1,0,0H0a0,0,0,0,1,0,0V.535A.535.535,0,0,1,.535,0Z" stroke="none"/>
            <path d="M.765.65h1.7a.115.115,0,0,1,.115.115V8.711a.65.65,0,0,1-.65.65H1.3a.65.65,0,0,1-.65-.65V.765A.115.115,0,0,1,.765.65Z" fill="none"/>
          </g>
          <g id="Rectangle_84" data-name="Rectangle 84" transform="translate(15.396)" fill="none" stroke="#55c4cf" stroke-linecap="round" stroke-linejoin="round" stroke-width="1.3">
            <path d="M.535,0H2.7a.535.535,0,0,1,.535.535V14.919a0,0,0,0,1,0,0H0a0,0,0,0,1,0,0V.535A.535.535,0,0,1,.535,0Z" stroke="none"/>
            <path d="M.765.65h1.7a.115.115,0,0,1,.115.115V13.619a.65.65,0,0,1-.65.65H1.3a.65.65,0,0,1-.65-.65V.765A.115.115,0,0,1,.765.65Z" fill="none"/>
          </g>
        </g>
        <g id="Group_75" data-name="Group 75" transform="translate(0.217)">
          <path id="Path_78" data-name="Path 78" d="M134.633,284.894l5.728-5.379,5.779.5,6.536-4.6" transform="translate(-134.633 -274.974)" fill="none" stroke="#55c4cf" stroke-linecap="round" stroke-linejoin="round" stroke-width="1.3"/>
          <path id="Path_79" data-name="Path 79" d="M146.728,275.088l1.695.009a.357.357,0,0,1,.341.456l-.431,1.512" transform="translate(-130.368 -275.088)" fill="none" stroke="#55c4cf" stroke-linecap="round" stroke-miterlimit="10" stroke-width="1.3"/>
        </g>
      </g>
      <rect id="Rectangle_85" data-name="Rectangle 85" width="57.77" height="38.928" rx="3.771" transform="translate(0)" fill="none" stroke="#55c4cf" stroke-linecap="round" stroke-miterlimit="10" stroke-width="1.3"/>
      <path id="Path_80" data-name="Path 80" d="M186.622,295.3v1.638a5.114,5.114,0,0,1-5.1,5.1h-47.57a5.115,5.115,0,0,1-5.1-5.1V295.3Z" transform="translate(-128.852 -263.105)" fill="none" stroke="#55c4cf" stroke-linecap="round" stroke-miterlimit="10" stroke-width="1.3"/>
      <ellipse id="Ellipse_12" data-name="Ellipse 12" cx="1.343" cy="1.343" rx="1.343" ry="1.343" transform="translate(27.543 34.217)" fill="none" stroke="#55c4cf" stroke-linecap="round" stroke-miterlimit="10" stroke-width="1.3"/>
      <g id="Group_77" data-name="Group 77" transform="translate(32.947 7.965)">
        <g id="Path_81" data-name="Path 81" transform="translate(-152.913 -274.942)" fill="none" stroke-linecap="round" stroke-linejoin="round">
          <path d="M170.566,284.312H161.88l-7.825,3.777a8.828,8.828,0,0,0,16.511-3.778Z" stroke="none"/>
          <path d="M 169.0537261962891 285.6122436523438 L 162.17724609375 285.61328125 L 155.9798736572266 288.6043395996094 C 156.1203918457031 288.7732238769531 156.2673034667969 288.9343872070312 156.4201812744141 289.0872497558594 C 157.8447875976562 290.5118713378906 159.7385711669922 291.2964477539062 161.7527160644531 291.2964477539062 C 163.7668609619141 291.2964477539062 165.66064453125 290.5118713378906 167.0852508544922 289.0872497558594 C 168.0479431152344 288.1245422363281 168.7237548828125 286.9225158691406 169.0537261962891 285.6122436523438 M 170.5663146972656 284.31201171875 C 170.4364624023438 286.3855590820312 169.58837890625 288.422607421875 168.0044860839844 290.0065002441406 C 166.2778778076172 291.7331237792969 164.0153045654297 292.596435546875 161.7527160644531 292.596435546875 C 159.4901428222656 292.596435546875 157.2275543212891 291.7331237792969 155.5009460449219 290.0065002441406 C 154.91796875 289.4235229492188 154.4418640136719 288.775634765625 154.0549926757812 288.0898742675781 L 161.8798522949219 284.3133239746094 L 170.5663146972656 284.31201171875 Z" stroke="none" fill="#55c4cf"/>
        </g>
        <g id="Path_82" data-name="Path 82" transform="translate(-150.761 -277.385)" fill="none" stroke-linecap="round" stroke-linejoin="round">
          <path d="M160.158,285.641h8.256a8.8,8.8,0,0,0-8.258-8.256Z" stroke="none"/>
          <path d="M 166.9020233154297 284.3413391113281 C 166.5720520019531 283.0315856933594 165.8963012695312 281.82958984375 164.9340057373047 280.8664855957031 C 163.9702453613281 279.9035339355469 162.7676544189453 279.2276000976562 161.4572448730469 278.8976135253906 L 161.4581451416016 284.3413391113281 L 166.9020233154297 284.3413391113281 M 168.4146728515625 285.641357421875 L 160.1583557128906 285.641357421875 L 160.1569976806641 277.385009765625 C 162.2305603027344 277.5148315429688 164.267578125 278.3629455566406 165.8528442382812 279.9468383789062 C 167.4367523193359 281.5320739746094 168.2848358154297 283.5677795410156 168.4146728515625 285.641357421875 Z" stroke="none" fill="#55c4cf"/>
        </g>
        <g id="Path_83" data-name="Path 83" transform="translate(-153.21 -277.385)" fill="none" stroke-linecap="round" stroke-linejoin="round">
          <path d="M161.493,285.908v-8.523a8.827,8.827,0,0,0-7.627,12.159Z" stroke="none"/>
          <path d="M 154.66357421875 287.7232360839844 L 160.1932525634766 285.0873413085938 L 160.1932525634766 278.8976745605469 C 158.8835144042969 279.2276611328125 157.6814422607422 279.9034729003906 156.718017578125 280.8660888671875 C 154.8974304199219 282.6866455078125 154.1536560058594 285.2654418945312 154.66357421875 287.7232360839844 M 153.8658905029297 289.5436096191406 C 152.5606079101562 286.3473815917969 153.2044525146484 282.5411376953125 155.7987670898438 279.9468383789062 C 157.384033203125 278.3629455566406 159.4197082519531 277.5148315429688 161.4932556152344 277.385009765625 L 161.4932556152344 285.9078063964844 L 153.8658905029297 289.5436096191406 Z" stroke="none" fill="#55c4cf"/>
        </g>
      </g>
    </g>
    <line id="Line_29" data-name="Line 29" x2="26.38" transform="translate(15.695 47.967)" fill="none" stroke="#55c4cf" stroke-linecap="round" stroke-miterlimit="10" stroke-width="1.3"/>
  </g>
</svg>
