<svg xmlns="http://www.w3.org/2000/svg" width="40" height="40" viewBox="0 0 40 40">
  <g id="Group_213" data-name="Group 213" transform="translate(-1197 -42)">
    <circle id="Ellipse_20" data-name="Ellipse 20" cx="20" cy="20" r="20" transform="translate(1197 42)" fill="#004f6c"/>
    <path id="Icon_metro-linkedin" data-name="Icon metro-linkedin" d="M16.571,29.428h-4v-14h4v14Zm-2-16a2,2,0,1,1,2-2A2,2,0,0,1,14.571,13.428Zm16,16h-4v-8a2,2,0,0,0-4,0v8h-4v-14h4v2.484c.825-1.133,2.086-2.484,3.5-2.484a4.77,4.77,0,0,1,4.5,5v9Z" transform="translate(1196.679 41.572)" fill="#fff"/>
  </g>
</svg>
