<svg xmlns="http://www.w3.org/2000/svg" width="202.34" height="46.373" viewBox="0 0 202.34 46.373">
  <g id="Group_136" data-name="Group 136" transform="translate(-95.605 -368.664)">
    <g id="Group_90" data-name="Group 90" transform="translate(95.605 370.107)">
      <g id="Group_84" data-name="Group 84" transform="translate(0)">
        <g id="Group_82" data-name="Group 82">
          <g id="Group_81" data-name="Group 81">
            <g id="Group_80" data-name="Group 80">
              <path id="Path_84" data-name="Path 84" d="M132.74,388.707a3.215,3.215,0,0,1-1.482-.41,73.238,73.238,0,0,0-20.169-7.145,49.674,49.674,0,0,0-10.266-1.321c-3.019,0-4.626.528-4.884,1.612a4.945,4.945,0,0,1-.334-1.792c0-5.5,9.11-9.976,20.307-9.976,15.767,0,22.618,5.959,22.9,6.213a3.279,3.279,0,0,1,.692,3.088,16.33,16.33,0,0,1-4.586,8.661,3.051,3.051,0,0,1-2.18,1.069Z" transform="translate(-95.605 -369.675)" fill="#fff"/>
            </g>
          </g>
        </g>
        <g id="Group_83" data-name="Group 83" transform="translate(1.118 12.512)">
          <path id="Path_85" data-name="Path 85" d="M99.819,383.63a11.487,11.487,0,0,1-3.431-3.846s.385-1.345,4.209-1.345a48.558,48.558,0,0,1,9.985,1.288c1.041.234,2.867.634,4.5,1.054-.775,3.251-2.421,6.072-5.8,6.072A17.28,17.28,0,0,1,99.819,383.63Z" transform="translate(-96.388 -378.439)" fill="#fff"/>
        </g>
      </g>
      <g id="Group_89" data-name="Group 89" transform="translate(0 24.005)">
        <g id="Group_87" data-name="Group 87" transform="translate(0 1.893)">
          <g id="Group_86" data-name="Group 86">
            <g id="Group_85" data-name="Group 85">
              <path id="Path_86" data-name="Path 86" d="M102.462,387.816a3.227,3.227,0,0,1,1.482.41,73.23,73.23,0,0,0,20.171,7.145,49.659,49.659,0,0,0,10.266,1.321c3.018,0,4.624-.528,4.884-1.612a4.976,4.976,0,0,1,.334,1.792c0,5.5-9.11,9.976-20.308,9.976-15.767,0-22.616-5.959-22.9-6.213a3.279,3.279,0,0,1-.692-3.088,16.33,16.33,0,0,1,4.586-8.661,3.056,3.056,0,0,1,2.18-1.069Z" transform="translate(-95.605 -387.816)" fill="#fff"/>
            </g>
          </g>
        </g>
        <g id="Group_88" data-name="Group 88" transform="translate(24.179)">
          <path id="Path_87" data-name="Path 87" d="M127.807,389.712a11.5,11.5,0,0,1,3.432,3.847s-.387,1.343-4.209,1.343a48.445,48.445,0,0,1-9.985-1.288c-1.041-.234-2.868-.634-4.5-1.054.774-3.251,2.421-6.072,5.8-6.072A17.279,17.279,0,0,1,127.807,389.712Z" transform="translate(-112.541 -386.49)" fill="#fff"/>
        </g>
      </g>
    </g>
    <g id="Group_93" data-name="Group 93" transform="translate(154.415 368.664)">
      <g id="Group_91" data-name="Group 91" transform="translate(0.649 36.618)">
        <path id="Path_88" data-name="Path 88" d="M137.254,394.4h4.83v1.263h-3.409v2.013h2.962v1.206h-2.962v2.348H142.2v1.263h-4.942Z" transform="translate(-137.254 -394.277)" fill="#fff"/>
        <path id="Path_89" data-name="Path 89" d="M142.775,402.495V394.4h1.341l2.929,3.9c.5.671.972,1.308,1.442,1.957l.023-.011c-.023-.761-.023-1.587-.023-2.448v-3.4h1.376v8.095h-1.342l-2.929-3.9c-.5-.67-.972-1.308-1.442-1.956l-.023.011c.023.76.023,1.587.023,2.448v3.4Z" transform="translate(-134.893 -394.277)" fill="#fff"/>
        <path id="Path_90" data-name="Path 90" d="M150.064,394.4h4.83v1.263h-3.409v2.013h2.962v1.206h-2.962v2.348h3.521v1.263h-4.941Z" transform="translate(-131.776 -394.277)" fill="#fff"/>
        <path id="Path_91" data-name="Path 91" d="M155.592,394.4h2.358a4.786,4.786,0,0,1,2.27.4,2.148,2.148,0,0,1,1.164,1.967,2.21,2.21,0,0,1-1.8,2.224l2.437,3.5h-1.666l-2.258-3.344h-1.084v3.344h-1.421Zm2.548,3.656a2.318,2.318,0,0,0,1.409-.325,1.012,1.012,0,0,0,.414-.871,1.022,1.022,0,0,0-.581-.972,3.2,3.2,0,0,0-1.509-.224h-.861v2.393Z" transform="translate(-129.412 -394.277)" fill="#fff"/>
        <path id="Path_92" data-name="Path 92" d="M168.662,401.9a5.515,5.515,0,0,1-2.784.75,4.09,4.09,0,0,1-4.3-4.147,4.143,4.143,0,0,1,4.349-4.193,4.876,4.876,0,0,1,2.483.648v1.488a4.168,4.168,0,0,0-2.471-.851,2.9,2.9,0,1,0,.011,5.792,3.025,3.025,0,0,0,1.319-.28v-1.555h-1.61V398.35h3.008Z" transform="translate(-126.854 -394.314)" fill="#fff"/>
        <path id="Path_93" data-name="Path 93" d="M168.793,394.4h1.421v8.095h-1.421Z" transform="translate(-123.767 -394.277)" fill="#fff"/>
        <path id="Path_94" data-name="Path 94" d="M179.58,402.495h-1.509l-.771-1.979h-3.488l-.782,1.979h-1.465l3.319-8.095h1.388Zm-5.309-3.142h2.571l-.47-1.218c-.28-.728-.548-1.443-.805-2.17h-.023c-.268.749-.525,1.442-.8,2.17Z" transform="translate(-122.582 -394.277)" fill="#fff"/>
      </g>
      <g id="Group_92" data-name="Group 92">
        <path id="Path_95" data-name="Path 95" d="M238.035,382.733c-.044-.7-.034-1.282-.126-1.844a2.986,2.986,0,0,0-2.344-2.516,8.5,8.5,0,0,0-6.464.881c-.253.134-.494.293-.734.435a3.4,3.4,0,0,1-2.037-2.844,9.7,9.7,0,0,1,3.676-2,12.106,12.106,0,0,1,7.942.077,6.321,6.321,0,0,1,4.3,5.626,21.6,21.6,0,0,1,.118,2.451c.014,2.77.006,5.539.006,8.309v.812c-.631.247-1.252.524-1.893.738a21.086,21.086,0,0,1-8.107,1.045,9.748,9.748,0,0,1-3.829-.975,5.336,5.336,0,0,1-2.952-5.6c.238-2.484,1.762-3.909,3.982-4.725a11.255,11.255,0,0,1,4.049-.573A13.735,13.735,0,0,1,238.035,382.733ZM238,385.982c-.15-.073-.246-.13-.348-.167a11.09,11.09,0,0,0-4.7-.55,5.261,5.261,0,0,0-1.41.308,2.123,2.123,0,0,0-1.479,1.939,2.282,2.282,0,0,0,.972,2.2,4.851,4.851,0,0,0,1.563.677,10.886,10.886,0,0,0,5.349-.42,1.87,1.87,0,0,0,.051-.293C238,388.458,238,387.241,238,385.982Z" transform="translate(-98.845 -366.292)" fill="#fff"/>
        <path id="Path_96" data-name="Path 96" d="M154.494,385.275H141.382a6.6,6.6,0,0,0,.718,2.407,4.729,4.729,0,0,0,4.033,2.517,8.4,8.4,0,0,0,5.686-1.615c.09-.064.183-.124.277-.183a1.126,1.126,0,0,1,.156-.066,4.673,4.673,0,0,1,1.894,2.944,7.868,7.868,0,0,1-1.964,1.325,11.962,11.962,0,0,1-8.954.892,8.262,8.262,0,0,1-5.873-5.8,11.106,11.106,0,0,1,.146-7.354,9.242,9.242,0,0,1,13.871-4.531,7.563,7.563,0,0,1,3.168,5.174A13.492,13.492,0,0,1,154.494,385.275Zm-4.221-2.965a3.979,3.979,0,0,0-2.8-4.273,5.037,5.037,0,0,0-2.353-.086,4.622,4.622,0,0,0-3.628,4.359Z" transform="translate(-136.799 -366.293)" fill="#fff"/>
        <path id="Path_97" data-name="Path 97" d="M194.831,385.273H181.759a4.986,4.986,0,0,0,4.416,4.9,8.381,8.381,0,0,0,5.569-1.326c.258-.17.515-.343.808-.538a4.592,4.592,0,0,1,1.924,3,10.983,10.983,0,0,1-3.58,1.984,12.048,12.048,0,0,1-7.629.11,8.294,8.294,0,0,1-5.573-5.69,11.025,11.025,0,0,1,.16-7.416,9.268,9.268,0,0,1,14.046-4.346,7.577,7.577,0,0,1,2.971,5.008A13.416,13.416,0,0,1,194.831,385.273ZM181.8,382.3h8.828a4.179,4.179,0,0,0-1.079-3.2,4.232,4.232,0,0,0-4.52-1.038A4.678,4.678,0,0,0,181.8,382.3Z" transform="translate(-119.553 -366.284)" fill="#fff"/>
        <path id="Path_98" data-name="Path 98" d="M209.9,393.325a11.413,11.413,0,0,1-4.424.01v-.688c0-3.1.011-6.206-.01-9.31a11.542,11.542,0,0,0-.208-2.042,3.359,3.359,0,0,0-2.975-2.89,8.491,8.491,0,0,0-5.235.771,1.8,1.8,0,0,0-.213.177v14.006a13.225,13.225,0,0,1-4.461.011V377.152c.291-.211.615-.475.965-.7a14.332,14.332,0,0,1,6.013-2.113,12.959,12.959,0,0,1,5.642.41,6.845,6.845,0,0,1,4.882,6.638c.061,3.855.02,7.712.024,11.569Z" transform="translate(-113.032 -366.292)" fill="#fff"/>
        <path id="Path_99" data-name="Path 99" d="M151.248,391.65a4.609,4.609,0,0,1,2-3.039c.287.177.581.37.885.545a8.937,8.937,0,0,0,6.71,1.029,2.011,2.011,0,0,0,1.655-1.535,1.538,1.538,0,0,0-.6-1.76,4.77,4.77,0,0,0-1.489-.685c-1.239-.311-2.5-.524-3.753-.8a8.184,8.184,0,0,1-2.748-1.111,4.7,4.7,0,0,1-2.164-4.487c.153-2.717,1.837-4.206,4.23-5.027a11.709,11.709,0,0,1,5.111-.467,13.787,13.787,0,0,1,4.1,1c.441.193.857.443,1.3.677a4.527,4.527,0,0,1-1.6,3.182c-.725-.286-1.39-.578-2.076-.812a10.513,10.513,0,0,0-4.184-.525,5.655,5.655,0,0,0-1.416.314,1.606,1.606,0,0,0-1.2,1.572,1.556,1.556,0,0,0,1.151,1.6,23.636,23.636,0,0,0,2.293.627c1.179.283,2.368.52,3.543.818a6.22,6.22,0,0,1,1.219.513,4.841,4.841,0,0,1,2.67,5.588c-.447,2.684-2.244,4.094-4.7,4.73a13.848,13.848,0,0,1-8.472-.513A7.886,7.886,0,0,1,151.248,391.65Z" transform="translate(-130.621 -366.287)" fill="#fff"/>
        <path id="Path_100" data-name="Path 100" d="M164.149,391.65a4.483,4.483,0,0,1,2.033-3.042,8.941,8.941,0,0,0,3.127,1.5,8.682,8.682,0,0,0,4.4.077,3.687,3.687,0,0,0,.9-.4,1.822,1.822,0,0,0-.053-3.094,9.576,9.576,0,0,0-2.9-.885,16.574,16.574,0,0,1-3.779-.951,4.857,4.857,0,0,1-3-3.077,5.251,5.251,0,0,1,1.916-5.959,8.682,8.682,0,0,1,4.2-1.5,14.337,14.337,0,0,1,6.4.714,22.205,22.205,0,0,1,2.033.929,4.9,4.9,0,0,1-1.65,3.205,4.576,4.576,0,0,1-.433-.167,11.194,11.194,0,0,0-5.848-1.176,5.377,5.377,0,0,0-1.533.378,1.545,1.545,0,0,0-1.062,1.463,1.484,1.484,0,0,0,1,1.566,15.481,15.481,0,0,0,2.408.694,23.985,23.985,0,0,1,3.923.945,6.85,6.85,0,0,1,2.213,1.312,4.575,4.575,0,0,1,1.442,3.516,5.584,5.584,0,0,1-1.556,4.11,6.568,6.568,0,0,1-3.216,1.773,14.009,14.009,0,0,1-9.025-.735A6.773,6.773,0,0,1,164.149,391.65Z" transform="translate(-125.104 -366.284)" fill="#fff"/>
        <path id="Path_101" data-name="Path 101" d="M220.607,390.135a4.6,4.6,0,0,1,1.863,3.091,8.323,8.323,0,0,1-4.881,1.971,9.293,9.293,0,0,1-3.987-.5,5.169,5.169,0,0,1-3.536-4.553,23.016,23.016,0,0,1-.123-2.45c-.014-2.327,0-4.656,0-6.983v-.769H206.8a8.865,8.865,0,0,1-.021-3.591h3.145v-4.942a10.915,10.915,0,0,1,4.389-.039v4.957h6.98a7.588,7.588,0,0,1,.007,3.593h-6.927c-.017.217-.037.366-.037.514,0,2.46-.02,4.921.011,7.381a7.172,7.172,0,0,0,.287,1.889,2.16,2.16,0,0,0,1.68,1.538,4.62,4.62,0,0,0,3.846-.764C220.3,390.377,220.437,390.264,220.607,390.135Z" transform="translate(-106.948 -367.595)" fill="#fff"/>
        <path id="Path_102" data-name="Path 102" d="M224.186,393.274a13.991,13.991,0,0,1-4.42-.017V374.689a11.74,11.74,0,0,1,4.42,0Z" transform="translate(-101.321 -366.178)" fill="#fff"/>
        <path id="Path_103" data-name="Path 103" d="M225.01,371.53a2.827,2.827,0,0,1-2.842,2.8,2.834,2.834,0,1,1,.063-5.666A2.824,2.824,0,0,1,225.01,371.53Z" transform="translate(-101.525 -368.664)" fill="#fff"/>
      </g>
    </g>
  </g>
</svg>
