<svg id="Group_138" data-name="Group 138" xmlns="http://www.w3.org/2000/svg" xmlns:xlink="http://www.w3.org/1999/xlink" width="237.277" height="54.805" viewBox="0 0 237.277 54.805">
  <defs>
    <linearGradient id="linear-gradient" x1="1.077" y1="0.651" x2="-0.317" y2="0.221" gradientUnits="objectBoundingBox">
      <stop offset="0" stop-color="#46bbc5"/>
      <stop offset="0.156" stop-color="#40b1bf"/>
      <stop offset="0.418" stop-color="#3097af"/>
      <stop offset="0.752" stop-color="#166d97"/>
      <stop offset="1" stop-color="#004a82"/>
    </linearGradient>
    <linearGradient id="linear-gradient-2" y1="0.5" x2="1" y2="0.5" gradientUnits="objectBoundingBox">
      <stop offset="0" stop-color="#ffa800"/>
      <stop offset="0.991" stop-color="#ef5713"/>
    </linearGradient>
  </defs>
  <g id="Group_29" data-name="Group 29" transform="translate(0 0)">
    <g id="Group_20" data-name="Group 20" transform="translate(68.321)">
      <path id="Path_19" data-name="Path 19" d="M590.058,279.469c-.052-.829-.04-1.511-.148-2.172a3.519,3.519,0,0,0-2.759-2.965,10.007,10.007,0,0,0-7.611,1.037c-.3.16-.581.345-.862.514a4,4,0,0,1-2.4-3.35,11.4,11.4,0,0,1,4.327-2.359,14.24,14.24,0,0,1,9.349.092,7.448,7.448,0,0,1,5.062,6.628,26.159,26.159,0,0,1,.14,2.888c.016,3.263.006,6.526.006,9.789v.958c-.743.291-1.474.618-2.229.869a24.793,24.793,0,0,1-9.543,1.231,11.445,11.445,0,0,1-4.507-1.147,6.289,6.289,0,0,1-3.476-6.6c.282-2.928,2.073-4.606,4.688-5.569a13.256,13.256,0,0,1,4.766-.675A16.183,16.183,0,0,1,590.058,279.469Zm-.046,3.828c-.177-.086-.289-.153-.41-.2a13.058,13.058,0,0,0-5.532-.648,6.236,6.236,0,0,0-1.661.365,2.5,2.5,0,0,0-1.741,2.284,2.688,2.688,0,0,0,1.145,2.586,5.676,5.676,0,0,0,1.839.8,12.8,12.8,0,0,0,6.3-.494,2.235,2.235,0,0,0,.059-.344C590.013,286.213,590.012,284.781,590.012,283.3Z" transform="translate(-426.21 -260.098)" fill="#003f59"/>
      <path id="Path_20" data-name="Path 20" d="M363.161,282.461H347.726a7.756,7.756,0,0,0,.845,2.835,5.568,5.568,0,0,0,4.747,2.966,9.891,9.891,0,0,0,6.694-1.9c.106-.076.215-.146.326-.215a1.688,1.688,0,0,1,.184-.078,5.515,5.515,0,0,1,2.231,3.469,9.232,9.232,0,0,1-2.313,1.561,14.068,14.068,0,0,1-10.54,1.051,9.73,9.73,0,0,1-6.914-6.833,13.1,13.1,0,0,1,.172-8.664,10.875,10.875,0,0,1,16.328-5.339,8.912,8.912,0,0,1,3.729,6.095A15.935,15.935,0,0,1,363.161,282.461Zm-4.969-3.495a4.686,4.686,0,0,0-3.29-5.034,5.923,5.923,0,0,0-2.77-.1,5.444,5.444,0,0,0-4.27,5.135Z" transform="translate(-342.331 -260.096)" fill="#003f59"/>
      <path id="Path_21" data-name="Path 21" d="M469.059,282.488H453.671a5.871,5.871,0,0,0,5.2,5.775,9.847,9.847,0,0,0,6.555-1.564c.3-.2.606-.4.952-.634a5.411,5.411,0,0,1,2.265,3.531,12.956,12.956,0,0,1-4.215,2.338,14.168,14.168,0,0,1-8.982.129,9.771,9.771,0,0,1-6.561-6.7,13.005,13.005,0,0,1,.188-8.739,10.908,10.908,0,0,1,16.536-5.12,8.93,8.93,0,0,1,3.5,5.9A15.883,15.883,0,0,1,469.059,282.488Zm-15.342-3.5h10.392a4.927,4.927,0,0,0-1.271-3.769,4.979,4.979,0,0,0-5.321-1.223A5.509,5.509,0,0,0,453.717,278.983Z" transform="translate(-380.444 -260.116)" fill="#003f59"/>
      <path id="Path_22" data-name="Path 22" d="M508.888,291.945a13.41,13.41,0,0,1-5.208.012v-.81c0-3.656.014-7.312-.011-10.967a13.51,13.51,0,0,0-.246-2.406,3.956,3.956,0,0,0-3.5-3.4,9.985,9.985,0,0,0-6.161.91,1.817,1.817,0,0,0-.25.208v16.5a15.52,15.52,0,0,1-5.253.012V272.89c.343-.249.725-.559,1.137-.82a16.851,16.851,0,0,1,7.077-2.489,15.252,15.252,0,0,1,6.642.482,8.064,8.064,0,0,1,5.748,7.821c.072,4.543.024,9.088.027,13.631Z" transform="translate(-394.855 -260.097)" fill="#003f59"/>
      <path id="Path_23" data-name="Path 23" d="M380.269,289.99a5.436,5.436,0,0,1,2.355-3.581c.337.209.683.436,1.041.643a10.516,10.516,0,0,0,7.9,1.213,2.367,2.367,0,0,0,1.947-1.808,1.81,1.81,0,0,0-.7-2.073,5.625,5.625,0,0,0-1.753-.807c-1.46-.366-2.948-.618-4.419-.944a9.591,9.591,0,0,1-3.234-1.309,5.535,5.535,0,0,1-2.547-5.286c.18-3.2,2.162-4.955,4.978-5.922a13.8,13.8,0,0,1,6.017-.55,16.229,16.229,0,0,1,4.825,1.176c.519.226,1.008.521,1.532.8a5.335,5.335,0,0,1-1.884,3.749c-.853-.336-1.637-.68-2.442-.957a12.377,12.377,0,0,0-4.926-.618,6.627,6.627,0,0,0-1.667.369,1.893,1.893,0,0,0-1.415,1.853,1.833,1.833,0,0,0,1.353,1.889,27.752,27.752,0,0,0,2.7.738c1.388.333,2.789.612,4.173.964a7.337,7.337,0,0,1,1.434.6c2.6,1.3,3.638,3.611,3.143,6.582-.527,3.163-2.643,4.824-5.531,5.573a16.282,16.282,0,0,1-9.973-.6A9.244,9.244,0,0,1,380.269,289.99Z" transform="translate(-355.986 -260.109)" fill="#003f59"/>
      <path id="Path_24" data-name="Path 24" d="M414.14,290a5.281,5.281,0,0,1,2.394-3.584,10.5,10.5,0,0,0,3.68,1.773,10.2,10.2,0,0,0,5.177.091,4.417,4.417,0,0,0,1.061-.472,2.148,2.148,0,0,0-.063-3.645,11.264,11.264,0,0,0-3.414-1.043A19.46,19.46,0,0,1,418.527,282,5.721,5.721,0,0,1,415,278.373a6.188,6.188,0,0,1,2.255-7.02,10.222,10.222,0,0,1,4.939-1.763,16.858,16.858,0,0,1,7.536.842,25.862,25.862,0,0,1,2.393,1.094,5.784,5.784,0,0,1-1.943,3.776c-.182-.069-.353-.118-.51-.2a13.144,13.144,0,0,0-6.883-1.386,6.283,6.283,0,0,0-1.806.445,1.822,1.822,0,0,0-1.251,1.725,1.752,1.752,0,0,0,1.175,1.846,18.232,18.232,0,0,0,2.836.817,28.064,28.064,0,0,1,4.617,1.113,8.069,8.069,0,0,1,2.6,1.545,5.389,5.389,0,0,1,1.7,4.143,6.584,6.584,0,0,1-1.831,4.843,7.716,7.716,0,0,1-3.785,2.088,16.472,16.472,0,0,1-10.624-.867A7.953,7.953,0,0,1,414.14,290Z" transform="translate(-368.178 -260.115)" fill="#003f59"/>
      <path id="Path_25" data-name="Path 25" d="M542.1,283.777a5.417,5.417,0,0,1,2.192,3.642,9.789,9.789,0,0,1-5.745,2.323,10.923,10.923,0,0,1-4.694-.594,6.087,6.087,0,0,1-4.162-5.363,26.986,26.986,0,0,1-.144-2.888c-.019-2.741-.006-5.483-.006-8.225v-.906h-3.693a10.459,10.459,0,0,1-.025-4.231h3.7v-5.823a12.824,12.824,0,0,1,5.167-.046v5.84H542.9a8.931,8.931,0,0,1,.008,4.233h-8.154c-.019.255-.044.43-.044.606,0,2.9-.024,5.8.014,8.7a8.487,8.487,0,0,0,.338,2.226,2.547,2.547,0,0,0,1.978,1.812,5.438,5.438,0,0,0,4.527-.9C541.737,284.061,541.9,283.93,542.1,283.777Z" transform="translate(-408.301 -257.222)" fill="#003f59"/>
      <path id="Path_26" data-name="Path 26" d="M565.369,292.272a16.44,16.44,0,0,1-5.2-.021V270.375a13.839,13.839,0,0,1,5.2,0Z" transform="translate(-420.738 -260.348)" fill="#003f59"/>
      <path id="Path_27" data-name="Path 27" d="M565.646,258.24a3.327,3.327,0,0,1-3.346,3.3,3.339,3.339,0,1,1,.074-6.676A3.325,3.325,0,0,1,565.646,258.24Z" transform="translate(-420.286 -254.863)" fill="#003f59"/>
    </g>
    <g id="Group_27" data-name="Group 27" transform="translate(0 1.59)">
      <g id="Group_23" data-name="Group 23">
        <g id="Group_22" data-name="Group 22">
          <g id="Group_21" data-name="Group 21">
            <path id="Path_28" data-name="Path 28" d="M286.524,264.683c-2.508-2.243-11.293-7.339-26.837-7.339-13.205,0-24.1,5.265-24.1,12.22,0,2.909,1.88,5.27,4.912,7.338-.384-.288-3.1-2.962-3.1-4.894,0-2.063,7.992-1.939,16.576,0s14.33,3.653,23.028,8.163a3.943,3.943,0,0,0,5.075-.9,19.534,19.534,0,0,0,5.476-10.356A4.452,4.452,0,0,0,286.524,264.683Z" transform="translate(-235.59 -257.344)" fill="url(#linear-gradient)"/>
          </g>
        </g>
        <path id="Path_29" data-name="Path 29" d="M261.5,280.991c-1.922-.514-5.051-1.268-6.51-1.6-8.585-1.939-16.576-2.063-16.576,0,0,1.932,2.718,4.606,3.1,4.894a23.631,23.631,0,0,0,10.4,4.2C256.989,289.185,258.218,286.2,261.5,280.991Z" transform="translate(-236.608 -264.729)" fill="#003f59"/>
      </g>
      <g id="Group_26" data-name="Group 26" transform="translate(0 29.358)">
        <g id="Group_25" data-name="Group 25" transform="translate(0 0.474)">
          <g id="Group_24" data-name="Group 24">
            <path id="Path_30" data-name="Path 30" d="M236.738,319.956c2.508,2.243,11.293,7.339,26.837,7.339,13.205,0,24.1-5.266,24.1-12.22,0-2.91-1.879-5.271-4.912-7.338.384.288,3.1,2.962,3.1,4.894,0,2.062-7.992,1.939-16.577,0s-14.33-3.653-23.028-8.163a3.942,3.942,0,0,0-5.074.9,19.544,19.544,0,0,0-5.476,10.357A4.453,4.453,0,0,0,236.738,319.956Z" transform="translate(-235.59 -303.912)" fill="url(#linear-gradient-2)"/>
          </g>
        </g>
        <path id="Path_31" data-name="Path 31" d="M278.063,310.767c1.922.514,5.051,1.269,6.509,1.6,8.585,1.939,16.577,2.062,16.577,0,0-1.932-2.718-4.606-3.1-4.894a23.627,23.627,0,0,0-10.4-4.2C282.578,302.573,281.349,305.555,278.063,310.767Z" transform="translate(-250.878 -303.173)" fill="#ae0721"/>
      </g>
    </g>
    <g id="Group_28" data-name="Group 28" transform="translate(70.688 43.367)">
      <path id="Path_32" data-name="Path 32" d="M346.029,322.785h5.686v1.489H347.7v2.37h3.487v1.423H347.7v2.766h4.145v1.488h-5.817Z" transform="translate(-346.029 -322.64)" fill="#003f59"/>
      <path id="Path_33" data-name="Path 33" d="M360.523,332.321v-9.536H362.1l3.448,4.6c.592.79,1.145,1.541,1.7,2.3l.026-.013c-.026-.9-.026-1.87-.026-2.884v-4h1.619v9.536h-1.58l-3.448-4.6c-.592-.79-1.145-1.541-1.7-2.3l-.027.013c.027.9.027,1.87.027,2.885v4Z" transform="translate(-351.246 -322.64)" fill="#003f59"/>
      <path id="Path_34" data-name="Path 34" d="M379.662,322.785h5.685v1.489h-4.014v2.37h3.488v1.423h-3.488v2.766h4.146v1.488h-5.817Z" transform="translate(-358.135 -322.64)" fill="#003f59"/>
      <path id="Path_35" data-name="Path 35" d="M394.176,322.785h2.777a5.639,5.639,0,0,1,2.672.474,2.53,2.53,0,0,1,1.369,2.318,2.6,2.6,0,0,1-2.119,2.621l2.869,4.123h-1.961l-2.659-3.938h-1.276v3.938h-1.671Zm3,4.307a2.734,2.734,0,0,0,1.658-.382,1.313,1.313,0,0,0-.2-2.173,3.781,3.781,0,0,0-1.776-.263h-1.014v2.818Z" transform="translate(-363.359 -322.64)" fill="#003f59"/>
      <path id="Path_36" data-name="Path 36" d="M418.225,331.5a6.487,6.487,0,0,1-3.276.882,4.815,4.815,0,0,1-5.067-4.886,4.88,4.88,0,0,1,5.119-4.94,5.742,5.742,0,0,1,2.922.764v1.751a4.912,4.912,0,0,0-2.909-1,3.412,3.412,0,1,0,.013,6.823,3.555,3.555,0,0,0,1.553-.329v-1.831h-1.9v-1.422h3.54Z" transform="translate(-369.012 -322.559)" fill="#003f59"/>
      <path id="Path_37" data-name="Path 37" d="M428.835,322.785h1.672v9.536h-1.672Z" transform="translate(-375.834 -322.64)" fill="#003f59"/>
      <path id="Path_38" data-name="Path 38" d="M445.549,332.321h-1.777l-.908-2.331h-4.106l-.922,2.331h-1.724l3.908-9.536h1.632Zm-6.251-3.7h3.027l-.553-1.435c-.329-.857-.645-1.7-.948-2.555H440.8c-.316.882-.618,1.7-.947,2.555Z" transform="translate(-378.454 -322.64)" fill="#003f59"/>
    </g>
  </g>
</svg>
