<?xml version="1.0" encoding="utf-8"?>
<!-- Generator: Adobe Illustrator 24.2.3, SVG Export Plug-In . SVG Version: 6.00 Build 0)  -->
<svg version="1.1" id="Layer_1" xmlns="http://www.w3.org/2000/svg" xmlns:xlink="http://www.w3.org/1999/xlink" x="0px" y="0px"
	 viewBox="0 0 692.3 918.7" style="enable-background:new 0 0 692.3 918.7;" xml:space="preserve">
<style type="text/css">
	.st0{fill:#E3F3F1;}
	.st1{opacity:0.2;fill:none;stroke:#55C4CF;enable-background:new    ;}
</style>
<g id="Group_214" transform="translate(-506.184 -2405.073)">
	<path id="Path_107" class="st0" d="M556.1,2840.5c50.1,58.4,236,198,599.6,232.3c14.2,1.3,42.8,3.2,42.8,3.2l-0.1-388.9
		c0,0-225.1-99.8-360-190.8c-23.9-16.2-66.1-34.7-122.1,9.9c-69.4,55.3-132.5,130.3-167.9,232.2
		C532.6,2783.4,537.9,2819.3,556.1,2840.5"/>
	<path id="Path_131_3_" class="st1" d="M647.5,2405.1c0,0-83.7,158.5-115.1,246.4c-43.3,121-30,217,18.1,273.4"/>
	<path id="Path_131_1_" class="st1" d="M550.5,2924.8c79,92.5,647.9,398.9,647.9,398.9"/>
</g>
</svg>
